<svg width="24" height="24" viewBox="0 0 24 24" fill="none" xmlns="http://www.w3.org/2000/svg">
<path fill-rule="evenodd" clip-rule="evenodd" d="M6.5 5.5C5.96957 5.5 5.46086 5.71071 5.08579 6.08579C4.71071 6.46086 4.5 6.96957 4.5 7.5V19.5C4.5 20.0304 4.71071 20.5391 5.08579 20.9142C5.46086 21.2893 5.96957 21.5 6.5 21.5H14.5C15.0304 21.5 15.5391 21.2893 15.9142 20.9142C16.2893 20.5391 16.5 20.0304 16.5 19.5H8.5C7.96957 19.5 7.46086 19.2893 7.08579 18.9142C6.71071 18.5391 6.5 18.0304 6.5 17.5V5.5Z" fill="#333333"/>
<path d="M14.185 2.5H9.5C8.96957 2.5 8.46086 2.71071 8.08579 3.08579C7.71071 3.46086 7.5 3.96957 7.5 4.5V16.5C7.5 17.0304 7.71071 17.5391 8.08579 17.9142C8.46086 18.2893 8.96957 18.5 9.5 18.5H17.5C18.0304 18.5 18.5391 18.2893 18.9142 17.9142C19.2893 17.5391 19.5 17.0304 19.5 16.5V7.742C19.5 7.47556 19.4467 7.21181 19.3433 6.96624C19.2399 6.72068 19.0885 6.49824 18.898 6.312L15.583 3.07C15.2094 2.70466 14.7076 2.50007 14.185 2.5Z" fill="#333333"/>
</svg>
